<svg width="33" height="32" viewBox="0 0 33 32" fill="none" xmlns="http://www.w3.org/2000/svg">
<path d="M12.375 7V25" stroke="white" stroke-width="3" stroke-linecap="round" stroke-linejoin="round"/>
<path d="M3.09377 20.9C3.09245 20.6697 3.17419 20.4462 3.32484 20.2682C3.47549 20.0901 3.68558 19.9687 3.91877 19.925C4.84627 19.734 5.67801 19.24 6.2748 18.5255C6.87159 17.811 7.19723 16.9194 7.19723 16C7.19723 15.0806 6.87159 14.189 6.2748 13.4745C5.67801 12.76 4.84627 12.266 3.91877 12.075C3.68558 12.0313 3.47549 11.9099 3.32484 11.7318C3.17419 11.5538 3.09245 11.3303 3.09377 11.1V8C3.09377 7.73478 3.20241 7.48043 3.39581 7.29289C3.58921 7.10536 3.85151 7 4.12502 7H28.875C29.1485 7 29.4108 7.10536 29.6042 7.29289C29.7976 7.48043 29.9063 7.73478 29.9063 8V11.1C29.9076 11.3303 29.8258 11.5538 29.6752 11.7318C29.5245 11.9099 29.3144 12.0313 29.0813 12.075C28.1538 12.266 27.322 12.76 26.7252 13.4745C26.1284 14.189 25.8028 15.0806 25.8028 16C25.8028 16.9194 26.1284 17.811 26.7252 18.5255C27.322 19.24 28.1538 19.734 29.0813 19.925C29.3144 19.9687 29.5245 20.0901 29.6752 20.2682C29.8258 20.4462 29.9076 20.6697 29.9063 20.9V24C29.9063 24.2652 29.7976 24.5196 29.6042 24.7071C29.4108 24.8946 29.1485 25 28.875 25H4.12502C3.85151 25 3.58921 24.8946 3.39581 24.7071C3.20241 24.5196 3.09377 24.2652 3.09377 24V20.9Z" stroke="white" stroke-width="3" stroke-linecap="round" stroke-linejoin="round"/>
</svg>