<svg width="51" height="34" viewBox="0 0 51 34" fill="none" xmlns="http://www.w3.org/2000/svg">
<path d="M18.125 2.375V31.625" stroke="white" stroke-width="3" stroke-linecap="round" stroke-linejoin="round"/>
<path d="M1.53125 24.9625C1.5289 24.5883 1.67504 24.2251 1.94439 23.9357C2.21373 23.6464 2.58935 23.4492 3.00625 23.3781C4.66451 23.0678 6.15156 22.265 7.21854 21.1039C8.28553 19.9429 8.86774 18.4941 8.86774 17C8.86774 15.5059 8.28553 14.0571 7.21854 12.8961C6.15156 11.735 4.66451 10.9322 3.00625 10.6219C2.58935 10.5508 2.21373 10.3536 1.94439 10.0643C1.67504 9.77493 1.5289 9.41174 1.53125 9.0375V4C1.53125 3.56902 1.7255 3.1557 2.07127 2.85095C2.41704 2.54621 2.886 2.375 3.375 2.375H47.625C48.114 2.375 48.583 2.54621 48.9287 2.85095C49.2745 3.1557 49.4687 3.56902 49.4687 4V9.0375C49.4711 9.41174 49.325 9.77493 49.0556 10.0643C48.7863 10.3536 48.4106 10.5508 47.9937 10.6219C46.3355 10.9322 44.8484 11.735 43.7814 12.8961C42.7145 14.0571 42.1323 15.5059 42.1323 17C42.1323 18.4941 42.7145 19.9429 43.7814 21.1039C44.8484 22.265 46.3355 23.0678 47.9937 23.3781C48.4106 23.4492 48.7863 23.6464 49.0556 23.9357C49.325 24.2251 49.4711 24.5883 49.4687 24.9625V30C49.4687 30.431 49.2745 30.8443 48.9287 31.149C48.583 31.4538 48.114 31.625 47.625 31.625H3.375C2.886 31.625 2.41704 31.4538 2.07127 31.149C1.7255 30.8443 1.53125 30.431 1.53125 30V24.9625Z" stroke="white" stroke-width="3" stroke-linecap="round" stroke-linejoin="round"/>
</svg>