<svg width="35" height="30" viewBox="0 0 35 30" fill="none" xmlns="http://www.w3.org/2000/svg">
<path d="M12.3531 15.9112L24.346 24.7759C24.4846 24.879 24.6528 24.95 24.8339 24.982C25.0151 25.014 25.203 25.0058 25.3793 24.9584C25.5556 24.9109 25.7141 24.8257 25.8393 24.7112C25.9646 24.5967 26.0522 24.4568 26.0936 24.3052L31.1096 5.90348C31.1517 5.74501 31.1417 5.57991 31.0808 5.42582C31.0199 5.27173 30.9103 5.13442 30.7637 5.02857C30.6172 4.92271 30.4392 4.85227 30.2487 4.82478C30.0582 4.79728 29.8624 4.81376 29.6822 4.87245L5.05592 12.9974C4.06873 13.3224 4.20213 14.5328 5.24268 14.7121L12.3531 15.9112Z" stroke="white" stroke-width="3" stroke-linecap="round" stroke-linejoin="round"/>
<path d="M12.3529 15.9112L30.5091 4.89484" stroke="white" stroke-width="3" stroke-linecap="round" stroke-linejoin="round"/>
<path d="M18.3427 20.3379L14.1806 23.8345C14.0321 23.9612 13.8421 24.0479 13.6348 24.0836C13.4275 24.1194 13.2122 24.1026 13.0164 24.0353C12.8205 23.968 12.6528 23.8534 12.5347 23.7059C12.4166 23.5584 12.3533 23.3847 12.3529 23.2069V15.9112" stroke="white" stroke-width="3" stroke-linecap="round" stroke-linejoin="round"/>
</svg>