<svg width="35" height="29" viewBox="0 0 35 29" fill="none" xmlns="http://www.w3.org/2000/svg">
<path d="M17.1762 9.86204C17.1762 7.39652 19.6441 5.34566 22.579 5.37928C23.6068 5.38925 24.6093 5.64838 25.466 6.12552C26.3227 6.60267 26.9971 7.27751 27.4082 8.06894H32.1173L27.8084 11.6888C27.5303 15.3249 25.6143 18.7356 22.4498 21.2275C19.2854 23.7193 15.1101 25.1052 10.7728 25.1034C6.50388 25.1034 5.43666 23.7586 5.43666 23.7586C5.43666 23.7586 9.70557 22.4138 11.84 19.7241C11.84 19.7241 3.3022 16.1379 5.43666 6.27584C5.43666 6.27584 10.7728 10.7586 17.1762 11.6551V9.86204Z" stroke="white" stroke-width="3" stroke-linecap="round" stroke-linejoin="round"/>
</svg>